<svg width="47" height="47" viewBox="0 0 47 47" fill="none" xmlns="http://www.w3.org/2000/svg">
<g style="mix-blend-mode:plus-darker">
<path d="M47 23.5C47 36.4787 36.4787 47 23.5 47C10.5213 47 0 36.4787 0 23.5C0 10.5213 10.5213 0 23.5 0C36.4787 0 47 10.5213 47 23.5ZM8.46 23.5C8.46 31.8064 15.1936 38.54 23.5 38.54C31.8064 38.54 38.54 31.8064 38.54 23.5C38.54 15.1936 31.8064 8.46 23.5 8.46C15.1936 8.46 8.46 15.1936 8.46 23.5Z" fill="#F3F5FE"/>
<path d="M47 23.5C47 36.4787 36.4787 47 23.5 47C10.5213 47 0 36.4787 0 23.5C0 10.5213 10.5213 0 23.5 0C36.4787 0 47 10.5213 47 23.5ZM8.46 23.5C8.46 31.8064 15.1936 38.54 23.5 38.54C31.8064 38.54 38.54 31.8064 38.54 23.5C38.54 15.1936 31.8064 8.46 23.5 8.46C15.1936 8.46 8.46 15.1936 8.46 23.5Z" fill="#B8C3FF" fill-opacity="0.2"/>
</g>
<path d="M47 23.5C47 36.4787 36.4787 47 23.5 47C10.5213 47 0 36.4787 0 23.5C0 10.5213 10.5213 0 23.5 0C36.4787 0 47 10.5213 47 23.5ZM8.46 23.5C8.46 31.8064 15.1936 38.54 23.5 38.54C31.8064 38.54 38.54 31.8064 38.54 23.5C38.54 15.1936 31.8064 8.46 23.5 8.46C15.1936 8.46 8.46 15.1936 8.46 23.5Z" fill="#5872F5"/>
<path d="M9.23242 10.2393C9.23242 8.29249 10.8294 6.71429 12.7994 6.71429L34.2012 6.71429C36.1712 6.71429 37.7681 8.29249 37.7681 10.2393V38.4393C37.7681 40.3861 36.1712 41.9643 34.2012 41.9643H12.7994C10.8294 41.9643 9.23242 40.3861 9.23242 38.4393V10.2393Z" fill="url(#paint0_linear_10981_9537)"/>
<g opacity="0.64">
<path fill-rule="evenodd" clip-rule="evenodd" d="M14.5826 32.2706C14.8288 32.2706 15.0285 32.4678 15.0285 32.7112L15.0285 36.6768C15.0285 36.9202 14.8288 37.1174 14.5826 37.1174C14.3363 37.1174 14.1367 36.9202 14.1367 36.6768L14.1367 32.7112C14.1367 32.4678 14.3363 32.2706 14.5826 32.2706Z" fill="#90A1F9"/>
<path fill-rule="evenodd" clip-rule="evenodd" d="M16.8119 32.2706C17.0582 32.2706 17.2578 32.4678 17.2578 32.7112L17.2578 36.6768C17.2578 36.9202 17.0582 37.1174 16.8119 37.1174C16.5657 37.1174 16.3661 36.9202 16.3661 36.6768L16.3661 32.7112C16.3661 32.4678 16.5657 32.2706 16.8119 32.2706Z" fill="#90A1F9"/>
<path fill-rule="evenodd" clip-rule="evenodd" d="M19.0413 32.2706C19.2875 32.2706 19.4872 32.4678 19.4872 32.7112V36.6768C19.4872 36.9202 19.2875 37.1174 19.0413 37.1174C18.795 37.1174 18.5954 36.9202 18.5954 36.6768V32.7112C18.5954 32.4678 18.795 32.2706 19.0413 32.2706Z" fill="#90A1F9"/>
<path fill-rule="evenodd" clip-rule="evenodd" d="M21.2706 32.2706C21.5169 32.2706 21.7165 32.4678 21.7165 32.7112V36.6768C21.7165 36.9202 21.5169 37.1174 21.2706 37.1174C21.0244 37.1174 20.8248 36.9202 20.8248 36.6768V32.7112C20.8248 32.4678 21.0244 32.2706 21.2706 32.2706Z" fill="#90A1F9"/>
<path fill-rule="evenodd" clip-rule="evenodd" d="M23.5 32.2706C23.7462 32.2706 23.9459 32.4678 23.9459 32.7112V36.6768C23.9459 36.9202 23.7462 37.1174 23.5 37.1174C23.2538 37.1174 23.0541 36.9202 23.0541 36.6768V32.7112C23.0541 32.4678 23.2538 32.2706 23.5 32.2706Z" fill="#90A1F9"/>
<path fill-rule="evenodd" clip-rule="evenodd" d="M25.7294 32.2706C25.9756 32.2706 26.1752 32.4678 26.1752 32.7112V36.6768C26.1752 36.9202 25.9756 37.1174 25.7294 37.1174C25.4831 37.1174 25.2835 36.9202 25.2835 36.6768V32.7112C25.2835 32.4678 25.4831 32.2706 25.7294 32.2706Z" fill="#90A1F9"/>
<path fill-rule="evenodd" clip-rule="evenodd" d="M27.9587 32.2706C28.205 32.2706 28.4046 32.4678 28.4046 32.7112V36.6768C28.4046 36.9202 28.205 37.1174 27.9587 37.1174C27.7125 37.1174 27.5128 36.9202 27.5128 36.6768V32.7112C27.5128 32.4678 27.7125 32.2706 27.9587 32.2706Z" fill="#90A1F9"/>
<path fill-rule="evenodd" clip-rule="evenodd" d="M30.1881 32.2706C30.4343 32.2706 30.6339 32.4678 30.6339 32.7112V36.6768C30.6339 36.9202 30.4343 37.1174 30.1881 37.1174C29.9418 37.1174 29.7422 36.9202 29.7422 36.6768V32.7112C29.7422 32.4678 29.9418 32.2706 30.1881 32.2706Z" fill="#90A1F9"/>
<path fill-rule="evenodd" clip-rule="evenodd" d="M32.4174 32.2706C32.6637 32.2706 32.8633 32.4678 32.8633 32.7112V36.6768C32.8633 36.9202 32.6637 37.1174 32.4174 37.1174C32.1712 37.1174 31.9715 36.9202 31.9715 36.6768V32.7112C31.9715 32.4678 32.1712 32.2706 32.4174 32.2706Z" fill="#90A1F9"/>
</g>
<g opacity="0.64">
<path fill-rule="evenodd" clip-rule="evenodd" d="M14.1367 20.3737C14.1367 20.1303 14.3363 19.933 14.5826 19.933H32.4174C32.6637 19.933 32.8633 20.1303 32.8633 20.3737C32.8633 20.617 32.6637 20.8143 32.4174 20.8143H14.5826C14.3363 20.8143 14.1367 20.617 14.1367 20.3737Z" fill="#90A1F9"/>
<path fill-rule="evenodd" clip-rule="evenodd" d="M14.1367 18.1705C14.1367 17.9272 14.3363 17.7299 14.5826 17.7299H32.4174C32.6637 17.7299 32.8633 17.9272 32.8633 18.1705C32.8633 18.4139 32.6637 18.6112 32.4174 18.6112H14.5826C14.3363 18.6112 14.1367 18.4139 14.1367 18.1705Z" fill="#90A1F9"/>
<path fill-rule="evenodd" clip-rule="evenodd" d="M14.1367 22.5768C14.1367 22.3334 14.3363 22.1362 14.5826 22.1362H27.9587C28.205 22.1362 28.4046 22.3334 28.4046 22.5768C28.4046 22.8201 28.205 23.0174 27.9587 23.0174H14.5826C14.3363 23.0174 14.1367 22.8201 14.1367 22.5768Z" fill="#90A1F9"/>
<path fill-rule="evenodd" clip-rule="evenodd" d="M14.1367 14.2049C14.1367 13.9616 14.3363 13.7643 14.5826 13.7643H21.2706C21.5169 13.7643 21.7165 13.9616 21.7165 14.2049C21.7165 14.4483 21.5169 14.6455 21.2706 14.6455H14.5826C14.3363 14.6455 14.1367 14.4483 14.1367 14.2049Z" fill="#90A1F9"/>
</g>
<path d="M47 23.5C47 26.5861 46.3922 29.6419 45.2112 32.4931C44.0302 35.3442 42.2992 37.9348 40.117 40.117C37.9348 42.2992 35.3442 44.0302 32.4931 45.2112C29.6419 46.3922 26.5861 47 23.5 47C20.4139 47 17.3581 46.3922 14.5069 45.2112C11.6558 44.0302 9.06517 42.2992 6.88299 40.117C4.70081 37.9348 2.96982 35.3442 1.78883 32.4931C0.607845 29.6419 -2.69792e-07 26.5861 0 23.5H8.46C8.46 25.4751 8.84902 27.4308 9.60485 29.2556C10.3607 31.0803 11.4685 32.7383 12.8651 34.1349C14.2617 35.5315 15.9197 36.6393 17.7444 37.3951C19.5692 38.151 21.5249 38.54 23.5 38.54C25.4751 38.54 27.4308 38.151 29.2556 37.3951C31.0803 36.6393 32.7383 35.5315 34.1349 34.1349C35.5315 32.7383 36.6393 31.0803 37.3951 29.2556C38.151 27.4308 38.54 25.4751 38.54 23.5H47Z" fill="url(#paint1_linear_10981_9537)"/>
<circle cx="36.0893" cy="8.39287" r="6.71429" fill="#FF8A14"/>
<g clip-path="url(#clip0_10981_9537)">
<path d="M36.9584 5.14905C36.3134 4.97622 35.6261 5.0667 35.0478 5.40059C34.4695 5.73448 34.0475 6.28442 33.8747 6.92945L33.4852 8.38301L33.1218 8.5928C33.05 8.6343 32.992 8.69618 32.9553 8.77061C32.9186 8.84504 32.9048 8.92867 32.9157 9.01095C32.9265 9.09322 32.9615 9.17044 33.0162 9.23284C33.0709 9.29524 33.1429 9.34001 33.223 9.36151L38.0871 10.6648C38.1673 10.6863 38.252 10.6835 38.3306 10.6568C38.4092 10.6302 38.4781 10.5808 38.5286 10.5149C38.5791 10.4491 38.609 10.3698 38.6144 10.287C38.6198 10.2041 38.6006 10.1216 38.5591 10.0497L38.3493 9.68635L38.7388 8.23278C38.9116 7.58776 38.8212 6.9005 38.4873 6.32219C38.1534 5.74387 37.6034 5.32189 36.9584 5.14905ZM35.2206 11.6346C34.8981 11.5481 34.6231 11.3371 34.4562 11.048C34.2893 10.7588 34.244 10.4152 34.3304 10.0927L36.7625 10.7444C36.6761 11.0669 36.4651 11.3418 36.1759 11.5088C35.8868 11.6757 35.5431 11.721 35.2206 11.6346Z" fill="#F3F5FE"/>
</g>
<defs>
<linearGradient id="paint0_linear_10981_9537" x1="23.5003" y1="6.71429" x2="23.5003" y2="103.786" gradientUnits="userSpaceOnUse">
<stop stop-color="#F4F5FF"/>
<stop offset="1" stop-color="white"/>
</linearGradient>
<linearGradient id="paint1_linear_10981_9537" x1="23.5" y1="23.0804" x2="23.5" y2="47" gradientUnits="userSpaceOnUse">
<stop stop-color="#5872F5"/>
<stop offset="1" stop-color="#0025E0"/>
</linearGradient>
<clipPath id="clip0_10981_9537">
<rect width="8.39286" height="8.39286" fill="white" transform="translate(33.123 3.25226) rotate(15)"/>
</clipPath>
</defs>
</svg>
