<svg width="878" height="224" viewBox="0 0 878 224" fill="none" xmlns="http://www.w3.org/2000/svg">
<circle cx="111.678" cy="111.678" r="111.678" fill="#B8C3FF"/>
<circle cx="111.678" cy="111.678" r="56.6484" fill="#F0584D"/>
<mask id="mask0_725_3930" style="mask-type:alpha" maskUnits="userSpaceOnUse" x="0" y="111" width="224" height="113">
<rect width="223.357" height="111.678" transform="matrix(1 0 0 -1 0 223.356)" fill="#C4C4C4"/>
</mask>
<g mask="url(#mask0_725_3930)">
<circle r="111.678" transform="matrix(1 0 0 -1 111.678 111.678)" fill="#0025E0"/>
</g>
<mask id="mask1_725_3930" style="mask-type:alpha" maskUnits="userSpaceOnUse" x="0" y="161" width="224" height="63">
<rect width="223.357" height="61.504" transform="matrix(1 0 0 -1 0 223.357)" fill="#C4C4C4"/>
</mask>
<g mask="url(#mask1_725_3930)">
<circle r="111.678" transform="matrix(1 0 0 -1 111.678 111.678)" fill="#0E248F"/>
</g>
<path d="M283.094 109.793C283.094 102.511 284.293 95.9151 286.692 90.0042C289.09 84.0075 292.388 78.9104 296.586 74.7127C300.869 70.5151 305.924 67.3026 311.749 65.0753C317.66 62.7623 324.128 61.6058 331.152 61.6058C338.263 61.5201 344.773 62.591 350.684 64.8183C356.595 66.9599 361.692 70.1296 365.976 74.3272C370.259 78.5249 373.6 83.5792 375.999 89.4902C378.397 95.4012 379.597 101.997 379.597 109.279C379.597 116.389 378.397 122.857 375.999 128.682C373.6 134.508 370.259 139.519 365.976 143.717C361.692 147.915 356.595 151.213 350.684 153.611C344.773 155.924 338.263 157.124 331.152 157.209C324.128 157.209 317.66 156.096 311.749 153.868C305.924 151.555 300.869 148.343 296.586 144.231C292.388 140.033 289.09 135.022 286.692 129.196C284.293 123.371 283.094 116.903 283.094 109.793ZM300.056 108.765C300.056 113.648 300.784 118.146 302.24 122.258C303.782 126.37 305.924 129.925 308.665 132.923C311.406 135.921 314.662 138.277 318.431 139.99C322.286 141.704 326.569 142.56 331.281 142.56C335.993 142.56 340.276 141.704 344.131 139.99C347.986 138.277 351.284 135.921 354.025 132.923C356.767 129.925 358.865 126.37 360.322 122.258C361.864 118.146 362.635 113.648 362.635 108.765C362.635 104.225 361.864 99.9843 360.322 96.0436C358.865 92.103 356.767 88.6763 354.025 85.7637C351.284 82.7654 347.986 80.4524 344.131 78.8247C340.276 77.1114 335.993 76.2547 331.281 76.2547C326.569 76.2547 322.286 77.1114 318.431 78.8247C314.662 80.4524 311.406 82.7654 308.665 85.7637C305.924 88.6763 303.782 92.103 302.24 96.0436C300.784 99.9843 300.056 104.225 300.056 108.765ZM435.752 111.721C433.953 109.836 432.068 108.337 430.098 107.223C428.128 106.109 426.115 105.553 424.059 105.553C421.232 105.553 418.704 106.067 416.477 107.095C414.25 108.123 412.322 109.493 410.695 111.207C409.153 112.92 407.953 114.89 407.097 117.118C406.326 119.345 405.94 121.658 405.94 124.057C405.94 126.455 406.326 128.768 407.097 130.995C407.953 133.223 409.153 135.193 410.695 136.906C412.322 138.62 414.25 139.99 416.477 141.018C418.704 142.046 421.232 142.56 424.059 142.56C426.457 142.56 428.685 142.089 430.74 141.147C432.796 140.119 434.553 138.663 436.009 136.778L446.289 147.829C444.747 149.371 442.948 150.699 440.892 151.812C438.922 152.926 436.908 153.826 434.852 154.511C432.796 155.196 430.826 155.667 428.942 155.924C427.057 156.267 425.429 156.438 424.059 156.438C419.433 156.438 415.064 155.667 410.952 154.125C406.84 152.583 403.284 150.399 400.286 147.572C397.288 144.745 394.889 141.361 393.09 137.42C391.377 133.394 390.52 128.939 390.52 124.057C390.52 119.174 391.377 114.762 393.09 110.821C394.889 106.795 397.288 103.368 400.286 100.541C403.284 97.7141 406.84 95.5296 410.952 93.9877C415.064 92.4457 419.433 91.6747 424.059 91.6747C427.999 91.6747 431.94 92.4457 435.88 93.9877C439.907 95.444 443.419 97.7998 446.417 101.055L435.752 111.721ZM467.931 129.453C468.445 134.079 470.244 137.677 473.328 140.247C476.412 142.817 480.138 144.102 484.507 144.102C488.362 144.102 491.575 143.331 494.145 141.789C496.801 140.162 499.114 138.149 501.084 135.75L512.135 144.102C508.537 148.557 504.511 151.727 500.056 153.611C495.601 155.496 490.932 156.438 486.049 156.438C481.423 156.438 477.054 155.667 472.943 154.125C468.831 152.583 465.275 150.399 462.277 147.572C459.279 144.745 456.88 141.361 455.081 137.42C453.368 133.394 452.511 128.939 452.511 124.057C452.511 119.174 453.368 114.762 455.081 110.821C456.88 106.795 459.279 103.368 462.277 100.541C465.275 97.7141 468.831 95.5296 472.943 93.9877C477.054 92.4457 481.423 91.6747 486.049 91.6747C490.333 91.6747 494.231 92.4457 497.743 93.9877C501.341 95.444 504.382 97.5856 506.866 100.413C509.436 103.24 511.407 106.752 512.777 110.95C514.234 115.062 514.962 119.816 514.962 125.213V129.453H467.931ZM499.542 117.889C499.456 113.348 498.043 109.793 495.301 107.223C492.56 104.567 488.748 103.24 483.865 103.24C479.239 103.24 475.555 104.567 472.814 107.223C470.158 109.879 468.531 113.434 467.931 117.889H499.542ZM567.932 146.415H567.546C565.319 149.928 562.492 152.498 559.065 154.125C555.639 155.667 551.869 156.438 547.757 156.438C544.93 156.438 542.146 156.053 539.405 155.282C536.749 154.511 534.35 153.354 532.209 151.812C530.153 150.27 528.482 148.343 527.197 146.03C525.912 143.717 525.27 141.018 525.27 137.934C525.27 134.593 525.87 131.766 527.069 129.453C528.268 127.055 529.853 125.085 531.823 123.543C533.879 121.915 536.235 120.63 538.891 119.688C541.546 118.745 544.288 118.06 547.115 117.632C550.027 117.118 552.94 116.818 555.853 116.732C558.765 116.561 561.507 116.475 564.077 116.475H567.932V114.805C567.932 110.95 566.604 108.08 563.948 106.195C561.293 104.225 557.909 103.24 553.797 103.24C550.541 103.24 547.5 103.839 544.673 105.039C541.846 106.152 539.405 107.694 537.349 109.665L529.253 101.569C532.68 98.0568 536.663 95.5296 541.204 93.9877C545.83 92.4457 550.584 91.6747 555.467 91.6747C559.836 91.6747 563.52 92.1887 566.518 93.2167C569.517 94.159 572.001 95.4012 573.971 96.9431C575.941 98.4851 577.441 100.284 578.469 102.34C579.582 104.31 580.353 106.324 580.782 108.38C581.296 110.436 581.595 112.449 581.681 114.419C581.767 116.304 581.81 117.974 581.81 119.431V154.896H567.932V146.415ZM567.032 127.269H563.82C561.678 127.269 559.279 127.355 556.624 127.526C553.968 127.697 551.441 128.126 549.042 128.811C546.729 129.411 544.759 130.353 543.131 131.638C541.504 132.837 540.69 134.551 540.69 136.778C540.69 138.234 540.99 139.476 541.589 140.504C542.275 141.447 543.131 142.261 544.159 142.946C545.187 143.631 546.344 144.145 547.629 144.488C548.914 144.745 550.199 144.873 551.484 144.873C556.795 144.873 560.693 143.631 563.177 141.147C565.747 138.577 567.032 135.107 567.032 130.738V127.269ZM598.4 93.2167H613.049V103.111H613.306C614.762 100.027 616.99 97.3715 619.988 95.1441C622.986 92.8312 627.055 91.6747 632.195 91.6747C636.307 91.6747 639.777 92.36 642.604 93.7307C645.517 95.1013 647.872 96.9003 649.671 99.1276C651.47 101.355 652.755 103.925 653.526 106.838C654.297 109.75 654.683 112.791 654.683 115.961V154.896H639.263V123.671C639.263 121.958 639.177 120.073 639.006 118.017C638.835 115.875 638.363 113.905 637.592 112.106C636.907 110.221 635.793 108.679 634.251 107.48C632.709 106.195 630.611 105.553 627.955 105.553C625.385 105.553 623.2 105.981 621.401 106.838C619.688 107.694 618.232 108.851 617.033 110.307C615.919 111.763 615.105 113.434 614.591 115.319C614.077 117.203 613.82 119.174 613.82 121.23V154.896H598.4V93.2167ZM711.623 63.9188H747.474C753.471 63.9188 759.254 64.8611 764.822 66.7458C770.39 68.5448 775.316 71.3289 779.599 75.0982C783.883 78.8676 787.309 83.622 789.879 89.3617C792.449 95.0156 793.734 101.698 793.734 109.408C793.734 117.203 792.235 123.971 789.237 129.71C786.324 135.364 782.512 140.076 777.8 143.845C773.174 147.529 767.992 150.313 762.252 152.198C756.598 153.997 751.03 154.896 745.547 154.896H711.623V63.9188ZM739.893 140.247C744.947 140.247 749.702 139.691 754.156 138.577C758.697 137.378 762.637 135.579 765.978 133.18C769.319 130.696 771.932 127.526 773.817 123.671C775.787 119.73 776.772 114.976 776.772 109.408C776.772 103.925 775.916 99.2133 774.202 95.2727C772.489 91.332 770.09 88.1623 767.006 85.7637C764.008 83.2794 760.41 81.4804 756.212 80.3667C752.1 79.1674 747.56 78.5677 742.591 78.5677H727.814V140.247H739.893ZM853.716 83.4507C852.003 80.9664 849.69 79.1674 846.777 78.0537C843.95 76.8544 840.952 76.2547 837.782 76.2547C835.898 76.2547 834.056 76.4689 832.257 76.8972C830.544 77.3256 828.959 78.0109 827.502 78.9532C826.132 79.8956 825.018 81.1377 824.161 82.6797C823.305 84.136 822.876 85.8922 822.876 87.9482C822.876 91.0322 823.947 93.388 826.089 95.0157C828.231 96.6433 830.886 98.0568 834.056 99.2561C837.226 100.455 840.695 101.612 844.464 102.726C848.234 103.839 851.703 105.381 854.873 107.352C858.042 109.322 860.698 111.935 862.84 115.19C864.981 118.445 866.052 122.772 866.052 128.169C866.052 133.051 865.153 137.335 863.354 141.018C861.555 144.616 859.113 147.615 856.029 150.013C853.031 152.412 849.519 154.211 845.492 155.41C841.466 156.61 837.226 157.209 832.771 157.209C827.117 157.209 821.677 156.267 816.452 154.382C811.226 152.498 806.728 149.328 802.959 144.873L815.167 133.051C817.137 136.05 819.707 138.406 822.876 140.119C826.132 141.747 829.558 142.56 833.156 142.56C835.041 142.56 836.926 142.303 838.81 141.789C840.695 141.275 842.408 140.504 843.95 139.476C845.492 138.448 846.735 137.163 847.677 135.621C848.619 133.994 849.09 132.152 849.09 130.096C849.09 126.755 848.02 124.185 845.878 122.386C843.736 120.587 841.081 119.088 837.911 117.889C834.741 116.604 831.272 115.404 827.502 114.291C823.733 113.177 820.264 111.678 817.094 109.793C813.924 107.823 811.269 105.253 809.127 102.083C806.985 98.8278 805.915 94.5017 805.915 89.1047C805.915 84.393 806.857 80.3239 808.742 76.8972C810.712 73.4706 813.239 70.6436 816.323 68.4163C819.493 66.1033 823.091 64.39 827.117 63.2763C831.143 62.1626 835.255 61.6058 839.453 61.6058C844.25 61.6058 848.876 62.334 853.331 63.7903C857.871 65.2466 861.94 67.6453 865.538 70.9863L853.716 83.4507Z" fill="#67697A"/>
</svg>
