<svg width="92" height="92" viewBox="0 0 92 92" fill="none" xmlns="http://www.w3.org/2000/svg">
<path d="M0 4C0 1.79086 1.79086 0 4 0H88C90.2091 0 92 1.79086 92 4V88C92 90.2091 90.2091 92 88 92H4C1.79086 92 0 90.2091 0 88V4Z" fill="#EDEAFF"/>
<path d="M58 34H34V58H58V34Z" stroke="#7B61FF" stroke-width="1.5" stroke-linecap="round" stroke-linejoin="round"/>
<path d="M34 48.6667L39.3333 43.3333L54 58" stroke="#7B61FF" stroke-width="1.5" stroke-linecap="round" stroke-linejoin="round"/>
<path d="M48 43.3333C49.8409 43.3333 51.3333 41.841 51.3333 40C51.3333 38.1591 49.8409 36.6667 48 36.6667C46.159 36.6667 44.6667 38.1591 44.6667 40C44.6667 41.841 46.159 43.3333 48 43.3333Z" stroke="#7B61FF" stroke-width="1.5" stroke-linecap="round" stroke-linejoin="round"/>
<path d="M48 52L58 42" stroke="#7B61FF" stroke-width="1.5" stroke-linecap="round" stroke-linejoin="round"/>
<path d="M4 91.5C3.36155 91.5 2.76444 91.3295 2.25008 91.0319L1.74928 91.8975C2.41176 92.2808 3.18104 92.5 4 92.5V91.5ZM0.968093 89.7499C0.67049 89.2356 0.5 88.6385 0.5 88H-0.5C-0.5 88.819 -0.280772 89.5882 0.102533 90.2507L0.968093 89.7499ZM0.5 88V83.3333H-0.5V88H0.5ZM0.5 78.6667V69.3333H-0.5V78.6667H0.5ZM0.5 64.6667V55.3333H-0.5V64.6667H0.5ZM0.5 50.6667V41.3333H-0.5V50.6667H0.5ZM0.5 36.6667V27.3333H-0.5V36.6667H0.5ZM0.5 22.6667V13.3333H-0.5V22.6667H0.5ZM0.5 8.66667V4H-0.5V8.66667H0.5ZM0.5 4C0.5 3.36155 0.67049 2.76444 0.968093 2.25008L0.102534 1.74928C-0.280772 2.41176 -0.5 3.18104 -0.5 4H0.5ZM2.25008 0.968093C2.76444 0.67049 3.36155 0.5 4 0.5V-0.5C3.18104 -0.5 2.41176 -0.280772 1.74928 0.102533L2.25008 0.968093ZM4 0.5H8.66667V-0.5H4V0.5ZM13.3333 0.5H22.6667V-0.5H13.3333V0.5ZM27.3333 0.5H36.6667V-0.5H27.3333V0.5ZM41.3333 0.5H50.6667V-0.5H41.3333V0.5ZM55.3333 0.5H64.6667V-0.5H55.3333V0.5ZM69.3333 0.5H78.6667V-0.5H69.3333V0.5ZM83.3333 0.5H88V-0.5H83.3333V0.5ZM88 0.5C88.6385 0.5 89.2356 0.67049 89.7499 0.968093L90.2507 0.102534C89.5882 -0.280772 88.819 -0.5 88 -0.5V0.5ZM91.0319 2.25008C91.3295 2.76444 91.5 3.36155 91.5 4H92.5C92.5 3.18104 92.2808 2.41176 91.8975 1.74928L91.0319 2.25008ZM91.5 4V8.66667H92.5V4H91.5ZM91.5 13.3333V22.6667H92.5V13.3333H91.5ZM91.5 27.3333V36.6667H92.5V27.3333H91.5ZM91.5 41.3333V50.6667H92.5V41.3333H91.5ZM91.5 55.3333V64.6667H92.5V55.3333H91.5ZM91.5 69.3333V78.6667H92.5V69.3333H91.5ZM91.5 83.3333V88H92.5V83.3333H91.5ZM91.5 88C91.5 88.6385 91.3295 89.2356 91.0319 89.7499L91.8975 90.2507C92.2808 89.5882 92.5 88.819 92.5 88H91.5ZM89.7499 91.0319C89.2356 91.3295 88.6385 91.5 88 91.5V92.5C88.819 92.5 89.5882 92.2808 90.2507 91.8975L89.7499 91.0319ZM88 91.5H83.3333V92.5H88V91.5ZM78.6667 91.5H69.3333V92.5H78.6667V91.5ZM64.6667 91.5H55.3333V92.5H64.6667V91.5ZM50.6667 91.5H41.3333V92.5H50.6667V91.5ZM36.6667 91.5H27.3333V92.5H36.6667V91.5ZM22.6667 91.5H13.3333V92.5H22.6667V91.5ZM8.66667 91.5H4V92.5H8.66667V91.5ZM4 91C3.45181 91 2.94078 90.8539 2.50049 90.5991L1.49887 92.3302C2.23542 92.7564 3.09078 93 4 93V91ZM1.40087 89.4995C1.14612 89.0592 1 88.5482 1 88H-1C-1 88.9092 -0.756404 89.7646 -0.330247 90.5011L1.40087 89.4995ZM1 88V83.3333H-1V88H1ZM1 78.6667V69.3333H-1V78.6667H1ZM1 64.6667V55.3333H-1V64.6667H1ZM1 50.6667V41.3333H-1V50.6667H1ZM1 36.6667V27.3333H-1V36.6667H1ZM1 22.6667V13.3333H-1V22.6667H1ZM1 8.66667V4H-1V8.66667H1ZM1 4C1 3.45181 1.14612 2.94078 1.40087 2.50049L-0.330246 1.49887C-0.756403 2.23542 -1 3.09078 -1 4H1ZM2.50049 1.40087C2.94078 1.14612 3.45181 1 4 1V-1C3.09078 -1 2.23542 -0.756404 1.49888 -0.330247L2.50049 1.40087ZM4 1H8.66667V-1H4V1ZM13.3333 1H22.6667V-1H13.3333V1ZM27.3333 1H36.6667V-1H27.3333V1ZM41.3333 1H50.6667V-1H41.3333V1ZM55.3333 1H64.6667V-1H55.3333V1ZM69.3333 1H78.6667V-1H69.3333V1ZM83.3333 1H88V-1H83.3333V1ZM88 1C88.5482 1 89.0592 1.14612 89.4995 1.40087L90.5011 -0.330246C89.7646 -0.756403 88.9092 -1 88 -1V1ZM90.5991 2.50049C90.8539 2.94078 91 3.45181 91 4H93C93 3.09078 92.7564 2.23542 92.3302 1.49888L90.5991 2.50049ZM91 4V8.66667H93V4H91ZM91 13.3333V22.6667H93V13.3333H91ZM91 27.3333V36.6667H93V27.3333H91ZM91 41.3333V50.6667H93V41.3333H91ZM91 55.3333V64.6667H93V55.3333H91ZM91 69.3333V78.6667H93V69.3333H91ZM91 83.3333V88H93V83.3333H91ZM91 88C91 88.5482 90.8539 89.0592 90.5991 89.4995L92.3302 90.5011C92.7564 89.7646 93 88.9092 93 88H91ZM89.4995 90.5991C89.0592 90.8539 88.5482 91 88 91V93C88.9092 93 89.7646 92.7564 90.5011 92.3302L89.4995 90.5991ZM88 91H83.3333V93H88V91ZM78.6667 91H69.3333V93H78.6667V91ZM64.6667 91H55.3333V93H64.6667V91ZM50.6667 91H41.3333V93H50.6667V91ZM36.6667 91H27.3333V93H36.6667V91ZM22.6667 91H13.3333V93H22.6667V91ZM8.66667 91H4V93H8.66667V91Z" fill="#7B61FF"/>
</svg>
