<svg width="47" height="49" viewBox="0 0 47 49" fill="none" xmlns="http://www.w3.org/2000/svg">
<g opacity="0.64" filter="url(#filter0_f_10981_9662)">
<path d="M23.5 11.75C17.0211 11.75 11.75 19.2799 11.75 28.5356C11.75 37.7913 17.0211 45.3214 23.5 45.3214C29.979 45.3214 35.25 37.7913 35.25 28.5356C35.25 19.2799 29.979 11.75 23.5 11.75Z" fill="#FFDB59"/>
<path opacity="0.8" d="M27.3191 31.203C27.3191 32.2209 27.0646 33.088 26.5554 33.8044C26.0553 34.5207 25.3779 34.9919 24.5233 35.2181V37.3482H22.6139V35.2935C22.032 35.2307 21.4865 35.0862 20.9773 34.86C20.4772 34.6212 20.0453 34.3196 19.6816 33.9552L20.459 31.5046C21.341 32.2963 22.2957 32.6922 23.3231 32.6922C24.3232 32.6922 24.8233 32.2524 24.8233 31.3727C24.8233 30.9957 24.6869 30.7192 24.4142 30.5433C24.1414 30.3548 23.6913 30.1537 23.064 29.9401C22.3911 29.7013 21.8365 29.4562 21.4001 29.2049C20.9636 28.9536 20.5818 28.564 20.2545 28.0362C19.9362 27.5084 19.7771 26.7983 19.7771 25.9061C19.7771 24.9133 20.0317 24.0525 20.5409 23.3236C21.05 22.5947 21.7229 22.1109 22.5593 21.8721V19.7232H24.4687V21.7967C24.9961 21.8973 25.4871 22.0669 25.9417 22.3057C26.3963 22.5319 26.7645 22.8084 27.0464 23.1351L26.269 25.5856C25.8326 25.1961 25.387 24.9007 24.9324 24.6997C24.4778 24.486 24.0459 24.3792 23.6368 24.3792C23.2185 24.3792 22.8821 24.4923 22.6275 24.7185C22.382 24.9447 22.2593 25.2652 22.2593 25.6799C22.2593 25.9689 22.3366 26.214 22.4911 26.4151C22.6548 26.6036 22.8548 26.7544 23.0912 26.8675C23.3276 26.968 23.6641 27.0937 24.1005 27.2445C24.7551 27.4581 25.3007 27.6843 25.7371 27.9231C26.1735 28.1618 26.5463 28.5451 26.8554 29.0729C27.1646 29.6007 27.3191 30.3108 27.3191 31.203Z" fill="#FF8A14"/>
</g>
<g opacity="0.64" filter="url(#filter1_f_10981_9662)">
<path d="M23.5008 33.5714C19.3358 33.5714 15.9473 36.3952 15.9473 39.866C15.9473 43.3369 19.3358 46.1607 23.5008 46.1607C27.6659 46.1607 31.0544 43.3369 31.0544 39.866C31.0544 36.3952 27.6659 33.5714 23.5008 33.5714Z" fill="#FFDB59"/>
</g>
<g style="mix-blend-mode:plus-darker">
<path d="M47 23.5C47 36.4787 36.4787 47 23.5 47C10.5213 47 0 36.4787 0 23.5C0 10.5213 10.5213 0 23.5 0C36.4787 0 47 10.5213 47 23.5ZM8.46 23.5C8.46 31.8064 15.1936 38.54 23.5 38.54C31.8064 38.54 38.54 31.8064 38.54 23.5C38.54 15.1936 31.8064 8.46 23.5 8.46C15.1936 8.46 8.46 15.1936 8.46 23.5Z" fill="#F3F5FE"/>
<path d="M47 23.5C47 36.4787 36.4787 47 23.5 47C10.5213 47 0 36.4787 0 23.5C0 10.5213 10.5213 0 23.5 0C36.4787 0 47 10.5213 47 23.5ZM8.46 23.5C8.46 31.8064 15.1936 38.54 23.5 38.54C31.8064 38.54 38.54 31.8064 38.54 23.5C38.54 15.1936 31.8064 8.46 23.5 8.46C15.1936 8.46 8.46 15.1936 8.46 23.5Z" fill="#B8C3FF" fill-opacity="0.2"/>
</g>
<path d="M47 23.5C47 36.4787 36.4787 47 23.5 47C10.5213 47 0 36.4787 0 23.5C0 10.5213 10.5213 0 23.5 0C36.4787 0 47 10.5213 47 23.5ZM8.46 23.5C8.46 31.8064 15.1936 38.54 23.5 38.54C31.8064 38.54 38.54 31.8064 38.54 23.5C38.54 15.1936 31.8064 8.46 23.5 8.46C15.1936 8.46 8.46 15.1936 8.46 23.5Z" fill="#B8C3FF"/>
<path d="M47 23.5C47 26.5861 46.3922 29.6419 45.2112 32.4931C44.0302 35.3442 42.2992 37.9348 40.117 40.117C37.9348 42.2992 35.3442 44.0302 32.4931 45.2112C29.6419 46.3922 26.5861 47 23.5 47C20.4139 47 17.3581 46.3922 14.5069 45.2112C11.6558 44.0302 9.06517 42.2992 6.88299 40.117C4.70081 37.9348 2.96982 35.3442 1.78883 32.4931C0.607845 29.6419 -2.69792e-07 26.5861 0 23.5H8.46C8.46 25.4751 8.84902 27.4308 9.60485 29.2556C10.3607 31.0803 11.4685 32.7383 12.8651 34.1349C14.2617 35.5315 15.9197 36.6393 17.7444 37.3951C19.5692 38.151 21.5249 38.54 23.5 38.54C25.4751 38.54 27.4308 38.151 29.2556 37.3951C31.0803 36.6393 32.7383 35.5315 34.1349 34.1349C35.5315 32.7383 36.6393 31.0803 37.3951 29.2556C38.151 27.4308 38.54 25.4751 38.54 23.5H47Z" fill="url(#paint0_linear_10981_9662)"/>
<path d="M23.5 11.75C17.0211 11.75 11.75 17.021 11.75 23.4999C11.75 29.9789 17.0211 35.25 23.5 35.25C29.979 35.25 35.25 29.9789 35.25 23.4999C35.25 17.021 29.979 11.75 23.5 11.75Z" fill="#FFDB59"/>
<path opacity="0.8" d="M27.3191 25.3671C27.3191 26.0796 27.0646 26.6866 26.5554 27.188C26.0553 27.6895 25.3779 28.0193 24.5233 28.1777V29.6687H22.6139V28.2305C22.032 28.1865 21.4865 28.0853 20.9773 27.927C20.4772 27.7598 20.0453 27.5487 19.6816 27.2936L20.459 25.5782C21.341 26.1324 22.2957 26.4095 23.3231 26.4095C24.3232 26.4095 24.8233 26.1016 24.8233 25.4859C24.8233 25.222 24.6869 25.0284 24.4142 24.9053C24.1414 24.7733 23.6913 24.6326 23.064 24.483C22.3911 24.3159 21.8365 24.1444 21.4001 23.9684C20.9636 23.7925 20.5818 23.5198 20.2545 23.1503C19.9362 22.7809 19.7771 22.2838 19.7771 21.6593C19.7771 20.9643 20.0317 20.3617 20.5409 19.8515C21.05 19.3413 21.7229 19.0026 22.5593 18.8355V17.3312H24.4687V18.7827C24.9961 18.8531 25.4871 18.9718 25.9417 19.139C26.3963 19.2973 26.7645 19.4909 27.0464 19.7196L26.269 21.4349C25.8326 21.1622 25.387 20.9555 24.9324 20.8148C24.4778 20.6652 24.0459 20.5904 23.6368 20.5904C23.2185 20.5904 22.8821 20.6696 22.6275 20.828C22.382 20.9863 22.2593 21.2106 22.2593 21.5009C22.2593 21.7032 22.3366 21.8748 22.4911 22.0155C22.6548 22.1475 22.8548 22.253 23.0912 22.3322C23.3276 22.4026 23.6641 22.4906 24.1005 22.5961C24.7551 22.7457 25.3007 22.904 25.7371 23.0711C26.1735 23.2383 26.5463 23.5066 26.8554 23.8761C27.1646 24.2455 27.3191 24.7425 27.3191 25.3671Z" fill="#FF8A14"/>
<defs>
<filter id="filter0_f_10981_9662" x="9.75" y="9.74997" width="27.5" height="37.5714" filterUnits="userSpaceOnUse" color-interpolation-filters="sRGB">
<feFlood flood-opacity="0" result="BackgroundImageFix"/>
<feBlend mode="normal" in="SourceGraphic" in2="BackgroundImageFix" result="shape"/>
<feGaussianBlur stdDeviation="1" result="effect1_foregroundBlur_10981_9662"/>
</filter>
<filter id="filter1_f_10981_9662" x="13.9473" y="31.5714" width="19.1074" height="16.5893" filterUnits="userSpaceOnUse" color-interpolation-filters="sRGB">
<feFlood flood-opacity="0" result="BackgroundImageFix"/>
<feBlend mode="normal" in="SourceGraphic" in2="BackgroundImageFix" result="shape"/>
<feGaussianBlur stdDeviation="1" result="effect1_foregroundBlur_10981_9662"/>
</filter>
<linearGradient id="paint0_linear_10981_9662" x1="23.5" y1="23.0804" x2="23.5" y2="47" gradientUnits="userSpaceOnUse">
<stop stop-color="#B8C3FF"/>
<stop offset="1" stop-color="#889BFF"/>
</linearGradient>
</defs>
</svg>
