<svg width="47" height="47" viewBox="0 0 47 47" fill="none" xmlns="http://www.w3.org/2000/svg">
<g style="mix-blend-mode:plus-darker">
<path d="M47 23.5C47 36.4787 36.4787 47 23.5 47C10.5213 47 0 36.4787 0 23.5C0 10.5213 10.5213 0 23.5 0C36.4787 0 47 10.5213 47 23.5ZM8.46 23.5C8.46 31.8064 15.1936 38.54 23.5 38.54C31.8064 38.54 38.54 31.8064 38.54 23.5C38.54 15.1936 31.8064 8.46 23.5 8.46C15.1936 8.46 8.46 15.1936 8.46 23.5Z" fill="#F3F5FE"/>
<path d="M47 23.5C47 36.4787 36.4787 47 23.5 47C10.5213 47 0 36.4787 0 23.5C0 10.5213 10.5213 0 23.5 0C36.4787 0 47 10.5213 47 23.5ZM8.46 23.5C8.46 31.8064 15.1936 38.54 23.5 38.54C31.8064 38.54 38.54 31.8064 38.54 23.5C38.54 15.1936 31.8064 8.46 23.5 8.46C15.1936 8.46 8.46 15.1936 8.46 23.5Z" fill="#B8C3FF" fill-opacity="0.2"/>
</g>
<path d="M47 23.5C47 28.1479 45.6217 32.6913 43.0395 36.5559C40.4573 40.4205 36.7871 43.4325 32.4931 45.2112C28.199 46.9898 23.4739 47.4552 18.9154 46.5485C14.3568 45.6417 10.1695 43.4035 6.88299 40.117C3.59646 36.8305 1.3583 32.6432 0.451546 28.0846C-0.455207 23.5261 0.0101716 18.801 1.78883 14.5069C3.56749 10.2129 6.57954 6.54268 10.4441 3.96046C14.3087 1.37825 18.8521 -5.54252e-08 23.5 0V8.46C20.5254 8.46 17.6175 9.34208 15.1442 10.9947C12.6709 12.6473 10.7432 14.9962 9.60485 17.7444C8.46651 20.4926 8.16867 23.5167 8.74899 26.4342C9.32931 29.3516 10.7617 32.0315 12.8651 34.1349C14.9685 36.2383 17.6484 37.6707 20.5658 38.251C23.4833 38.8313 26.5074 38.5335 29.2556 37.3951C32.0038 36.2568 34.3527 34.3291 36.0053 31.8558C37.6579 29.3825 38.54 26.4746 38.54 23.5H47Z" fill="#5872F5"/>
<path d="M9.23242 10.2392C9.23242 8.29243 10.8294 6.71423 12.7994 6.71423L34.2012 6.71423C36.1712 6.71423 37.7681 8.29243 37.7681 10.2392V38.4392C37.7681 40.386 36.1712 41.9642 34.2012 41.9642H12.7994C10.8294 41.9642 9.23242 40.386 9.23242 38.4392V10.2392Z" fill="url(#paint0_linear_10981_251)"/>
<g opacity="0.64">
<path fill-rule="evenodd" clip-rule="evenodd" d="M14.5826 32.2705C14.8288 32.2705 15.0285 32.4678 15.0285 32.7111L15.0285 36.6768C15.0285 36.9201 14.8288 37.1174 14.5826 37.1174C14.3363 37.1174 14.1367 36.9201 14.1367 36.6768L14.1367 32.7111C14.1367 32.4678 14.3363 32.2705 14.5826 32.2705Z" fill="#90A1F9"/>
<path fill-rule="evenodd" clip-rule="evenodd" d="M16.8119 32.2705C17.0582 32.2705 17.2578 32.4678 17.2578 32.7111L17.2578 36.6768C17.2578 36.9201 17.0582 37.1174 16.8119 37.1174C16.5657 37.1174 16.3661 36.9201 16.3661 36.6768L16.3661 32.7111C16.3661 32.4678 16.5657 32.2705 16.8119 32.2705Z" fill="#90A1F9"/>
<path fill-rule="evenodd" clip-rule="evenodd" d="M19.0413 32.2705C19.2875 32.2705 19.4872 32.4678 19.4872 32.7111V36.6768C19.4872 36.9201 19.2875 37.1174 19.0413 37.1174C18.795 37.1174 18.5954 36.9201 18.5954 36.6768V32.7111C18.5954 32.4678 18.795 32.2705 19.0413 32.2705Z" fill="#90A1F9"/>
<path fill-rule="evenodd" clip-rule="evenodd" d="M21.2706 32.2705C21.5169 32.2705 21.7165 32.4678 21.7165 32.7111V36.6768C21.7165 36.9201 21.5169 37.1174 21.2706 37.1174C21.0244 37.1174 20.8248 36.9201 20.8248 36.6768V32.7111C20.8248 32.4678 21.0244 32.2705 21.2706 32.2705Z" fill="#90A1F9"/>
<path fill-rule="evenodd" clip-rule="evenodd" d="M23.5 32.2705C23.7462 32.2705 23.9459 32.4678 23.9459 32.7111V36.6768C23.9459 36.9201 23.7462 37.1174 23.5 37.1174C23.2538 37.1174 23.0541 36.9201 23.0541 36.6768V32.7111C23.0541 32.4678 23.2538 32.2705 23.5 32.2705Z" fill="#90A1F9"/>
<path fill-rule="evenodd" clip-rule="evenodd" d="M25.7294 32.2705C25.9756 32.2705 26.1752 32.4678 26.1752 32.7111V36.6768C26.1752 36.9201 25.9756 37.1174 25.7294 37.1174C25.4831 37.1174 25.2835 36.9201 25.2835 36.6768V32.7111C25.2835 32.4678 25.4831 32.2705 25.7294 32.2705Z" fill="#90A1F9"/>
<path fill-rule="evenodd" clip-rule="evenodd" d="M27.9587 32.2705C28.205 32.2705 28.4046 32.4678 28.4046 32.7111V36.6768C28.4046 36.9201 28.205 37.1174 27.9587 37.1174C27.7125 37.1174 27.5128 36.9201 27.5128 36.6768V32.7111C27.5128 32.4678 27.7125 32.2705 27.9587 32.2705Z" fill="#90A1F9"/>
<path fill-rule="evenodd" clip-rule="evenodd" d="M30.1881 32.2705C30.4343 32.2705 30.6339 32.4678 30.6339 32.7111V36.6768C30.6339 36.9201 30.4343 37.1174 30.1881 37.1174C29.9418 37.1174 29.7422 36.9201 29.7422 36.6768V32.7111C29.7422 32.4678 29.9418 32.2705 30.1881 32.2705Z" fill="#90A1F9"/>
<path fill-rule="evenodd" clip-rule="evenodd" d="M32.4174 32.2705C32.6637 32.2705 32.8633 32.4678 32.8633 32.7111V36.6768C32.8633 36.9201 32.6637 37.1174 32.4174 37.1174C32.1712 37.1174 31.9715 36.9201 31.9715 36.6768V32.7111C31.9715 32.4678 32.1712 32.2705 32.4174 32.2705Z" fill="#90A1F9"/>
</g>
<g opacity="0.64">
<path fill-rule="evenodd" clip-rule="evenodd" d="M14.1367 20.3737C14.1367 20.1303 14.3363 19.933 14.5826 19.933H32.4174C32.6637 19.933 32.8633 20.1303 32.8633 20.3737C32.8633 20.617 32.6637 20.8143 32.4174 20.8143H14.5826C14.3363 20.8143 14.1367 20.617 14.1367 20.3737Z" fill="#90A1F9"/>
<path fill-rule="evenodd" clip-rule="evenodd" d="M14.1367 18.1705C14.1367 17.9272 14.3363 17.7299 14.5826 17.7299H32.4174C32.6637 17.7299 32.8633 17.9272 32.8633 18.1705C32.8633 18.4139 32.6637 18.6112 32.4174 18.6112H14.5826C14.3363 18.6112 14.1367 18.4139 14.1367 18.1705Z" fill="#90A1F9"/>
<path fill-rule="evenodd" clip-rule="evenodd" d="M14.1367 22.5768C14.1367 22.3334 14.3363 22.1362 14.5826 22.1362H27.9587C28.205 22.1362 28.4046 22.3334 28.4046 22.5768C28.4046 22.8201 28.205 23.0174 27.9587 23.0174H14.5826C14.3363 23.0174 14.1367 22.8201 14.1367 22.5768Z" fill="#90A1F9"/>
<path fill-rule="evenodd" clip-rule="evenodd" d="M14.1367 14.2049C14.1367 13.9616 14.3363 13.7643 14.5826 13.7643H21.2706C21.5169 13.7643 21.7165 13.9616 21.7165 14.2049C21.7165 14.4483 21.5169 14.6455 21.2706 14.6455H14.5826C14.3363 14.6455 14.1367 14.4483 14.1367 14.2049Z" fill="#90A1F9"/>
</g>
<path d="M47 23.5C47 26.5861 46.3922 29.6419 45.2112 32.4931C44.0302 35.3442 42.2992 37.9348 40.117 40.117C37.9348 42.2992 35.3442 44.0302 32.4931 45.2112C29.6419 46.3922 26.5861 47 23.5 47C20.4139 47 17.3581 46.3922 14.5069 45.2112C11.6558 44.0302 9.06517 42.2992 6.88299 40.117C4.70081 37.9348 2.96982 35.3442 1.78883 32.4931C0.607845 29.6419 -2.69792e-07 26.5861 0 23.5H8.46C8.46 25.4751 8.84902 27.4308 9.60485 29.2556C10.3607 31.0803 11.4685 32.7383 12.8651 34.1349C14.2617 35.5315 15.9197 36.6393 17.7444 37.3951C19.5692 38.151 21.5249 38.54 23.5 38.54C25.4751 38.54 27.4308 38.151 29.2556 37.3951C31.0803 36.6393 32.7383 35.5315 34.1349 34.1349C35.5315 32.7383 36.6393 31.0803 37.3951 29.2556C38.151 27.4308 38.54 25.4751 38.54 23.5H47Z" fill="url(#paint1_linear_10981_251)"/>
<circle cx="36.0893" cy="8.39287" r="6.71429" fill="#FF8A14"/>
<g clip-path="url(#clip0_10981_251)">
<path d="M36.9565 5.15015C36.3114 4.97732 35.6242 5.0678 35.0459 5.40169C34.4676 5.73557 34.0456 6.28552 33.8727 6.93054L33.4832 8.38411L33.1199 8.5939C33.048 8.6354 32.9901 8.69728 32.9534 8.77171C32.9167 8.84614 32.9029 8.92977 32.9137 9.01205C32.9245 9.09432 32.9595 9.17154 33.0142 9.23394C33.0689 9.29634 33.1409 9.34111 33.2211 9.36261L38.0852 10.6659C38.1653 10.6874 38.2501 10.6846 38.3286 10.6579C38.4072 10.6313 38.4761 10.5819 38.5266 10.516C38.5772 10.4502 38.607 10.3709 38.6125 10.2881C38.6179 10.2052 38.5986 10.1227 38.5572 10.0508L38.3474 9.68745L38.7369 8.23388C38.9097 7.58886 38.8192 6.9016 38.4853 6.32329C38.1514 5.74497 37.6015 5.32298 36.9565 5.15015ZM35.2187 11.6357C34.8962 11.5492 34.6212 11.3382 34.4542 11.0491C34.2873 10.7599 34.2421 10.4163 34.3285 10.0938L36.7605 10.7455C36.6741 11.068 36.4631 11.3429 36.174 11.5099C35.8848 11.6768 35.5412 11.7221 35.2187 11.6357Z" fill="#F3F5FE"/>
</g>
<defs>
<linearGradient id="paint0_linear_10981_251" x1="23.5003" y1="6.71423" x2="23.5003" y2="103.786" gradientUnits="userSpaceOnUse">
<stop stop-color="#F4F5FF"/>
<stop offset="1" stop-color="white"/>
</linearGradient>
<linearGradient id="paint1_linear_10981_251" x1="23.5" y1="22.6607" x2="23.5" y2="47" gradientUnits="userSpaceOnUse">
<stop stop-color="#5872F5"/>
<stop offset="1" stop-color="#0025E0"/>
</linearGradient>
<clipPath id="clip0_10981_251">
<rect width="8.39286" height="8.39286" fill="white" transform="translate(33.1211 3.2533) rotate(15)"/>
</clipPath>
</defs>
</svg>
