<svg width="12" height="12" viewBox="0 0 12 12" fill="none" xmlns="http://www.w3.org/2000/svg">
<path fill-rule="evenodd" clip-rule="evenodd" d="M0.7 0H10.5C10.8866 0 11.2 0.313401 11.2 0.7V10.5C11.2 10.8866 10.8866 11.2 10.5 11.2H0.7C0.313401 11.2 0 10.8866 0 10.5V0.7C0 0.313401 0.313401 0 0.7 0ZM2.59497 1.60503C2.32161 1.33166 1.87839 1.33166 1.60503 1.60503C1.33166 1.87839 1.33166 2.32161 1.60503 2.59497L4.61005 5.6L1.60503 8.60503C1.33166 8.87839 1.33166 9.32161 1.60503 9.59497C1.87839 9.86834 2.32161 9.86834 2.59497 9.59497L5.6 6.58995L8.60503 9.59497C8.87839 9.86834 9.32161 9.86834 9.59497 9.59497C9.86834 9.32161 9.86834 8.87839 9.59497 8.60503L6.58995 5.6L9.59497 2.59497C9.86834 2.32161 9.86834 1.87839 9.59497 1.60503C9.32161 1.33166 8.87839 1.33166 8.60503 1.60503L5.6 4.61005L2.59497 1.60503Z" fill="#E0E2EE"/>
</svg>
